<svg id="line" height="512" viewBox="0 0 64 64" width="512" xmlns="http://www.w3.org/2000/svg"><g fill="#c4a2fc"><circle cx="27" cy="41" r="2"/><circle cx="43" cy="52" r="4"/><path d="m61.313 39.86a2.972 2.972 0 0 0 -3.287-.109c-4.783 2.9-12.019 4.841-19.318-2.458-10.8-10.8-21.57-3.28-24.613-.72a2.96 2.96 0 0 0 -1.075 2.389 25 25 0 0 0 49.508 3.9 2.928 2.928 0 0 0 -1.215-3.002zm-34.313 5.14a4 4 0 1 1 4-4 4 4 0 0 1 -4 4zm16 13a6 6 0 1 1 6-6 6.006 6.006 0 0 1 -6 6z"/></g><path d="m33 24.894v-13.894h3a3 3 0 0 0 0-6h-20a3 3 0 0 0 0 6h3v13.894a14 14 0 1 0 14 0zm-18-16.894a1 1 0 0 1 1-1h20a1 1 0 0 1 0 2h-20a1 1 0 0 1 -1-1zm6 3h10v12.939a13.782 13.782 0 0 0 -10 0zm16.978 25.561c-1.136.9-5.252 3.464-11.448-.409-5.656-3.536-10.017-2.372-12.349-1.152 2.392-14.166 23.274-12.791 23.797 1.561zm-11.978 12.439a12 12 0 0 1 -11.978-11.561c1.136-.9 5.251-3.464 11.448.409a13.914 13.914 0 0 0 7.413 2.358 10.622 10.622 0 0 0 4.937-1.206 12.009 12.009 0 0 1 -11.82 10z" fill="#151a6a"/><path d="m22 39a3 3 0 1 0 3 3 3 3 0 0 0 -3-3zm0 4a1 1 0 1 1 1-1 1 1 0 0 1 -1 1z" fill="#151a6a"/><path d="m27.808 29.205a8.007 8.007 0 0 1 4.61 3.019 1 1 0 0 0 1.6-1.2 10.009 10.009 0 0 0 -5.765-3.772 1 1 0 0 0 -.449 1.949z" fill="#151a6a"/></svg>